Coordinates
version=1
nRows=32
nColumns=12
inDegrees=yes

Units are S.I. units (second, meters, Newtons, ...)
Angles are in degrees

endheader
time	SC_y	SC_z	SC_x	AC_y	AC_z	AC_x	GH_y	GH_z	GH_yy	EL_x	PS_y
       0.0               -27.5          26.42          20.84          45.21         -15.64         -13.55         -140.6          70.08         -70.04          108.6          37.18
   0.04181               -27.5          26.42          20.84          45.21         -15.64         -13.55         -140.6          70.08         -70.03          108.5          37.18
   0.08363               -27.5          26.42          20.85          45.21         -15.64         -13.55         -140.5          70.07         -70.02          108.5          37.18
    0.1254               -27.5          26.42          20.85           45.2         -15.64         -13.55         -140.5          70.07         -70.01          108.5          37.18
    0.1673               -27.5          26.42          20.85           45.2         -15.64         -13.55         -140.4          70.06          -70.0          108.5          37.18
    0.2091               -27.5          26.42          20.86           45.2         -15.64         -13.55         -140.4          70.05         -69.99          108.5          37.18
    0.2509               -27.5          26.42          20.86           45.2         -15.64         -13.55         -140.4          70.04         -69.98          108.5          37.18
    0.2927               -27.5          26.42          20.86           45.2         -15.64         -13.55         -140.3          70.04         -69.97          108.5          37.18
    0.3345              -27.49          26.42          20.87           45.2         -15.64         -13.55         -140.2          70.03         -69.96          108.5          37.18
    0.3763              -27.49          26.42          20.87          45.19         -15.65         -13.55         -140.2          70.02         -69.94          108.4          37.18
    0.4181              -27.49          26.42          20.88          45.19         -15.65         -13.56         -140.1          70.01         -69.93          108.4          37.18
    0.4599              -27.49          26.42          20.88          45.19         -15.65         -13.56         -140.0          69.99         -69.91          108.4          37.17
    0.5018              -27.49          26.42          20.89          45.19         -15.65         -13.56         -140.0          69.98          -69.9          108.4          37.17
    0.5436              -27.48          26.42          20.89          45.18         -15.65         -13.56         -139.9          69.97         -69.88          108.4          37.17
    0.5854              -27.48          26.42           20.9          45.18         -15.65         -13.56         -139.8          69.96         -69.86          108.3          37.17
    0.6272              -27.48          26.41          20.91          45.18         -15.65         -13.56         -139.7          69.94         -69.83          108.3          37.17
     0.669              -27.47          26.41          20.92          45.17         -15.65         -13.57         -139.6          69.92         -69.81          108.3          37.17
    0.7108              -27.47          26.41          20.92          45.17         -15.66         -13.57         -139.5          69.91         -69.78          108.3          37.17
    0.7526              -27.47          26.41          20.93          45.17         -15.66         -13.57         -139.4          69.89         -69.76          108.2          37.17
    0.7944              -27.46          26.41          20.94          45.16         -15.66         -13.57         -139.2          69.86         -69.73          108.2          37.16
    0.8363              -27.46          26.41          20.96          45.16         -15.66         -13.57         -139.1          69.84         -69.69          108.2          37.16
    0.8781              -27.45          26.41          20.97          45.15         -15.67         -13.58         -138.9          69.82         -69.65          108.1          37.16
    0.9199              -27.45          26.41          20.98          45.14         -15.67         -13.58         -138.7          69.79         -69.61          108.1          37.16
    0.9617              -27.44           26.4           21.0          45.14         -15.67         -13.58         -138.5          69.75         -69.57          108.0          37.16
     1.004              -27.44           26.4          21.01          45.13         -15.67         -13.59         -138.3          69.72         -69.52          108.0          37.15
     1.045              -27.43           26.4          21.03          45.12         -15.68         -13.59         -138.0          69.68         -69.46          107.9          37.15
     1.087              -27.42           26.4          21.05          45.11         -15.68          -13.6         -137.8          69.64         -69.39          107.8          37.15
     1.129              -27.41          26.39          21.08           45.1         -15.69          -13.6         -137.4          69.59         -69.32          107.8          37.14
     1.171               -27.4          26.39           21.1          45.09         -15.69         -13.61         -137.1          69.53         -69.24          107.7          37.14
     1.213              -27.39          26.39          21.13          45.07          -15.7         -13.62         -136.7          69.47         -69.15          107.6          37.13
     1.254              -27.38          26.38          21.17          45.06         -15.71         -13.62         -136.2          69.39         -69.04          107.5          37.13
     1.296              -27.36          26.38          21.21          45.04         -15.71         -13.63         -135.7          69.31         -68.92          107.3          37.12
